HIERARCHY
ROOT Hips
{
    OFFSET 0.000000 0.000000 0.000000
    CHANNELS 6 Xposition Yposition Zposition Zrotation Xrotation Yrotation
    JOINT Spine
    {
        OFFSET -0.000000 8.226649 0.000000
        CHANNELS 3 Zrotation Xrotation Yrotation
        JOINT Spine1
        {
            OFFSET -0.000000 24.451035 0.000000
            CHANNELS 3 Zrotation Xrotation Yrotation
            JOINT Neck
            {
                OFFSET -0.000000 24.350622 2.213693
                CHANNELS 3 Zrotation Xrotation Yrotation
                JOINT Head
                {
                    OFFSET -0.000000 14.045498 -2.006500
                    CHANNELS 3 Zrotation Xrotation Yrotation
                    End Site
                    {
                        OFFSET -0.000000 25.081247 0.000000
                    }
                }
            }
            JOINT LeftShoulder
            {
                OFFSET 4.059404 22.255779 -0.272799
                CHANNELS 3 Zrotation Xrotation Yrotation
                JOINT LeftArm
                {
                    OFFSET 12.029813 0.000000 0.000000
                    CHANNELS 3 Zrotation Xrotation Yrotation
                    JOINT LeftForeArm
                    {
                        OFFSET 31.268898 0.000000 0.000000
                        CHANNELS 3 Zrotation Xrotation Yrotation
                        JOINT LeftHand
                        {
                            OFFSET 28.027487 0.000000 0.000000
                            CHANNELS 3 Zrotation Xrotation Yrotation
                            End Site
                            {
                                OFFSET 15.048748 0.000000 0.000000
                            }
                        }
                    }
                }
            }
            JOINT RightShoulder
            {
                OFFSET -3.964640 22.255779 -0.272799
                CHANNELS 3 Zrotation Xrotation Yrotation
                JOINT RightArm
                {
                    OFFSET -12.029813 0.000000 0.000000
                    CHANNELS 3 Zrotation Xrotation Yrotation
                    JOINT RightForeArm
                    {
                        OFFSET -31.268898 0.000000 0.000000
                        CHANNELS 3 Zrotation Xrotation Yrotation
                        JOINT RightHand
                        {
                            OFFSET -28.027487 0.000000 0.000000
                            CHANNELS 3 Zrotation Xrotation Yrotation
                            End Site
                            {
                                OFFSET -15.048748 0.000000 0.000000
                            }
                        }
                    }
                }
            }
        }
    }
    JOINT LeftUpLeg
    {
        OFFSET 10.032499 0.000000 0.000000
        CHANNELS 3 Zrotation Xrotation Yrotation
        JOINT LeftLeg
        {
            OFFSET -0.000000 -38.403259 0.000000
            CHANNELS 3 Zrotation Xrotation Yrotation
            JOINT LeftFoot
            {
                OFFSET -0.000000 -44.164154 0.000000
                CHANNELS 3 Zrotation Xrotation Yrotation
                JOINT LeftToeBase
                {
                    OFFSET -0.000000 -6.521124 15.048748
                    CHANNELS 3 Zrotation Xrotation Yrotation
                    End Site
                    {
                        OFFSET -0.000000 0.000000 4.013000
                    }
                }
            }
        }
    }
    JOINT RightUpLeg
    {
        OFFSET -10.032499 0.000000 0.000000
        CHANNELS 3 Zrotation Xrotation Yrotation
        JOINT RightLeg
        {
            OFFSET -0.000000 -38.403259 0.000000
            CHANNELS 3 Zrotation Xrotation Yrotation
            JOINT RightFoot
            {
                OFFSET -0.000000 -44.164154 0.000000
                CHANNELS 3 Zrotation Xrotation Yrotation
                JOINT RightToeBase
                {
                    OFFSET -0.000000 -6.521124 15.048748
                    CHANNELS 3 Zrotation Xrotation Yrotation
                    End Site
                    {
                        OFFSET -0.000000 0.000000 4.013000
                    }
                }
            }
        }
    }
}
MOTION
Frames:    10
Frame Time:    0.004000
-32.727066    101.127792    -80.328888    -11.202386    -13.666178    10.427921    12.842427    14.934959    -7.409246    4.662322    10.939911    -6.166097    5.230349    17.400942    9.892496    -11.518029    12.066636    9.947490    3.462633    8.971725    -9.632295    -64.531708    39.555538    -20.369740    6.790708    0.532691    -12.447536    10.894076    1.490114    2.271801    -0.089897    14.448590    6.454224    45.163940    47.309040    29.220861    -7.590975    -8.628197    19.232256    -7.063770    -7.157534    -3.194302    15.671373    14.025721    2.041449    -0.911994    16.376530    -12.109796    -6.402035    23.823217    9.291260    0.000000    0.000000    0.000000    8.060414    -54.254715    -9.562593    117.947716    85.640678    -120.230255    0.294005    -24.308683    -3.271625    0.000000    0.000000    0.000000    
-32.730347    101.415825    -80.107178    -10.993654    -13.420701    10.455066    12.658142    14.859701    -7.358484    4.681583    10.843980    -6.146146    5.179653    17.500217    9.854828    -11.577408    11.901786    9.893189    3.439030    9.011167    -9.547003    -64.612213    39.777462    -20.289976    6.725979    0.877554    -12.259304    10.390021    1.811722    2.329415    -0.138410    14.392891    6.449983    45.066673    47.268826    29.308111    -7.620741    -8.525166    19.421886    -6.892194    -7.030760    -3.365061    15.446136    13.928468    1.556014    -1.088816    16.080902    -11.202018    -6.403803    24.419331    9.016008    0.000000    0.000000    0.000000    8.071188    -53.965012    -9.403125    114.031792    85.842964    -116.334831    0.251212    -24.446562    -3.263193    0.000000    0.000000    0.000000    
-32.727493    101.693810    -79.906677    -10.779918    -13.132433    10.432392    12.484981    14.755017    -7.276089    4.619510    10.750455    -6.088524    5.256921    17.415262    9.871127    -11.681747    12.059724    9.919553    3.454130    9.058916    -9.501473    -64.697983    39.968884    -20.187719    6.590863    1.092723    -12.153105    10.392009    2.027344    2.562764    -0.141678    14.367579    6.440035    44.886887    47.364883    29.470533    -7.687017    -8.683855    19.608206    -7.194870    -7.131596    -3.773228    15.182258    13.734739    1.429965    -1.169438    15.933161    -10.861988    -6.669325    24.846485    9.187691    0.000000    0.000000    0.000000    8.110823    -53.756306    -9.182952    109.884857    86.033890    -112.241829    0.320179    -24.537004    -3.212384    0.000000    0.000000    0.000000    
-32.723400    101.973412    -79.693069    -10.579352    -12.838553    10.432001    12.333880    14.585445    -7.204988    4.554440    10.704332    -6.047848    5.208903    17.535618    9.824800    -11.671821    11.833035    9.853148    3.453402    9.129963    -9.462670    -64.747322    40.124786    -20.099714    6.517582    1.429425    -12.068674    10.098133    2.360175    2.739290    -0.123925    14.393638    6.370039    44.547592    47.503853    29.808449    -7.925357    -8.659534    19.639259    -6.751117    -7.073069    -3.865307    14.907436    13.521223    1.404022    -1.158150    15.795147    -10.513199    -6.635587    25.266605    8.999456    0.000000    0.000000    0.000000    8.126586    -53.521061    -8.801231    104.258011    86.013260    -106.649788    0.338335    -24.719696    -3.165707    0.000000    0.000000    0.000000    
-32.718391    102.255653    -79.482269    -10.367550    -12.586306    10.425385    12.171344    14.458552    -7.123806    4.504333    10.656057    -5.994820    5.215422    17.479368    9.824539    -11.703901    11.930004    9.859115    3.442513    9.164104    -9.449160    -64.775116    40.241932    -20.008892    6.426951    1.679271    -11.932073    9.569043    2.571145    2.635644    -0.155348    14.333216    6.336077    44.437862    47.556511    29.996939    -8.022359    -8.718387    19.673788    -6.633765    -7.109529    -3.992960    14.656181    13.337257    1.273984    -1.190815    15.715738    -10.360126    -6.576219    25.511436    8.937245    0.000000    0.000000    0.000000    8.109507    -53.307446    -8.855412    100.513069    86.359924    -102.935852    0.448029    -24.684786    -3.097462    0.000000    0.000000    0.000000    
-32.714973    102.532745    -79.281631    -10.168532    -12.336679    10.431272    12.013104    14.335386    -7.055859    4.464211    10.606626    -5.954647    5.185801    17.620829    9.748219    -11.726588    11.655728    9.756243    3.425403    9.179940    -9.412049    -64.880730    40.451221    -19.827848    6.443550    1.948434    -11.908196    9.213703    2.842001    2.756129    -0.170882    14.320564    6.324596    44.268425    47.609264    30.164751    -8.196781    -8.725829    19.801096    -6.224823    -7.091683    -3.993298    14.440486    13.112110    1.146930    -1.307326    15.694039    -10.121400    -6.661229    25.783510    9.110809    0.000000    0.000000    0.000000    8.084317    -53.081558    -8.691216    95.107788    86.443443    -97.589523    0.532366    -24.724680    -3.003231    0.000000    0.000000    0.000000    
-32.704334    102.817680    -79.068527    -9.966205    -12.096046    10.410207    11.895489    14.216929    -6.978991    4.356140    10.557304    -5.893318    5.224213    17.577383    9.757964    -11.782685    11.700234    9.767233    3.404786    9.253100    -9.373130    -64.799767    40.533226    -19.785236    6.242244    2.241628    -11.904958    8.840725    3.118151    2.929330    -0.167517    14.278357    6.265599    44.067471    47.678581    30.368603    -8.344823    -8.619461    19.861938    -5.986219    -6.956850    -4.108451    14.182946    12.902217    1.089345    -1.366764    15.681874    -9.868634    -6.457856    25.995066    9.081545    0.000000    0.000000    0.000000    8.069513    -52.829266    -8.504505    89.260559    86.489433    -91.775223    0.688389    -24.742504    -2.919551    0.000000    0.000000    0.000000    
-32.687340    103.096603    -78.855148    -9.746655    -11.933196    10.375262    11.763435    14.174482    -6.893627    4.267388    10.524638    -5.819603    5.091752    17.635918    9.798460    -11.555874    11.488721    9.797717    3.402484    9.286685    -9.343199    -64.876465    40.760605    -19.653770    6.347148    2.480986    -11.890156    8.362378    3.361584    3.017125    -0.183952    14.228606    6.221203    44.103081    47.502602    30.308796    -8.389533    -8.453177    20.219742    -5.730092    -6.752604    -4.345551    13.965261    12.772508    0.982832    -1.493283    15.726715    -9.847460    -6.668777    26.062885    9.619596    0.000000    0.000000    0.000000    8.041763    -52.519005    -8.334190    83.677544    86.532082    -86.248795    0.864958    -24.777479    -2.796041    0.000000    0.000000    0.000000    
-32.681053    103.376678    -78.654289    -9.552867    -11.688344    10.367732    11.665943    14.048416    -6.824884    4.137094    10.459523    -5.761790    5.074932    17.780132    9.746140    -11.564953    11.210361    9.720571    3.411193    9.317087    -9.338708    -64.932274    40.882645    -19.460335    6.318624    2.770090    -11.951365    7.881091    3.640314    3.048245    -0.180633    14.248159    6.166629    43.878834    47.559258    30.612930    -8.523436    -8.504932    20.230591    -5.445642    -6.797124    -4.208102    13.690804    12.424900    0.983168    -1.425653    16.009892    -10.019417    -6.708276    25.889982    9.931522    0.000000    0.000000    0.000000    8.010478    -52.285583    -8.046330    77.939262    86.385506    -80.555862    0.921991    -24.816149    -2.689374    0.000000    0.000000    0.000000    
-32.668991    103.651810    -78.454529    -9.391769    -11.477615    10.364807    11.605735    13.913474    -6.763453    4.016999    10.442116    -5.710155    5.126078    17.744083    9.746067    -11.634851    11.236134    9.719122    3.380646    9.353226    -9.303164    -64.909836    41.018303    -19.345362    6.255425    2.997077    -12.025522    7.543027    3.860999    3.130845    -0.213859    14.251373    6.132916    43.734615    47.563393    30.793270    -8.795865    -8.281998    20.278967    -4.450023    -6.574282    -3.769577    13.455803    12.118942    1.034740    -1.404065    16.242290    -9.850752    -6.647056    25.829258    9.914740    0.000000    0.000000    0.000000    7.990899    -52.052402    -7.961201    72.113449    86.387024    -74.828957    1.101745    -24.765434    -2.540361    0.000000    0.000000    0.000000    
